<svg width="367" height="99" viewBox="0 0 367 99" fill="none" xmlns="http://www.w3.org/2000/svg">
<path d="M3.70928 34.1711L3.70928 11.7194H8.74945V21.0361H23.7172V11.7194H28.7574V34.1711H23.7172V24.7016H8.74945L8.74945 34.1711H3.70928ZM36.8295 14.6595C35.8877 14.6595 35.2004 14.4686 34.7676 14.0868C34.3349 13.7049 34.1185 13.0685 34.1185 12.1776C34.1185 11.2612 34.3222 10.6248 34.7295 10.2684C35.1622 9.88661 35.8622 9.6957 36.8295 9.6957C37.7968 9.6957 38.4968 9.88661 38.9296 10.2684C39.3623 10.6248 39.5787 11.2612 39.5787 12.1776C39.5787 13.0431 39.3623 13.6795 38.9296 14.0868C38.4968 14.4686 37.7968 14.6595 36.8295 14.6595ZM34.5004 34.1711V17.065H39.1587V34.1711H34.5004ZM50.7929 34.1711C48.8583 34.1711 47.5346 33.7638 46.8219 32.9492C46.1091 32.1346 45.7527 30.9128 45.7527 29.2836V20.3488H42.6217V17.065H44.2254C44.7091 17.065 45.0527 16.9887 45.2563 16.8359C45.4854 16.6832 45.6509 16.3777 45.7527 15.9195L46.5164 11.8339H50.4111V17.065H58.3531V20.3488H50.4111V29.3218C50.4111 29.9582 50.5638 30.3782 50.8693 30.5818C51.1747 30.7855 51.6329 30.8873 52.2439 30.8873H57.6277L58.0095 33.7892C57.4749 33.8656 56.6604 33.9547 55.5658 34.0565C54.4712 34.1329 53.2748 34.1711 51.9766 34.1711H50.7929ZM61.4135 34.1711V17.065H64.5445L65.499 17.5232C66.2373 17.396 67.1409 17.2941 68.21 17.2178C69.2792 17.1159 70.5519 17.065 72.0284 17.065H73.9375C74.6757 17.065 75.3885 17.1669 76.0758 17.3705C76.7631 17.5487 77.2722 17.816 77.6031 18.1723C78.2649 17.8414 79.1813 17.5741 80.3523 17.3705C81.5232 17.1669 83.0505 17.065 84.9342 17.065H86.8434C88.1162 17.065 89.0962 17.2432 89.7835 17.5996C90.4708 17.956 90.9544 18.4014 91.2344 18.936C91.5399 19.4706 91.7181 20.0179 91.769 20.5779C91.8454 21.1124 91.8836 21.5706 91.8836 21.9525V34.1711H87.2252V21.8761C87.2252 20.8579 86.6143 20.3488 85.3924 20.3488H80.0468C79.6395 20.3488 79.3595 20.3997 79.2068 20.5015C79.054 20.6033 78.9777 20.8324 78.9777 21.1888V34.1711H74.3193V21.8761C74.3193 20.8579 73.7084 20.3488 72.4866 20.3488H67.2173C66.7336 20.3488 66.4154 20.3997 66.2627 20.5015C66.1354 20.5779 66.0718 20.807 66.0718 21.1888V34.1711H61.4135ZM101.204 34.1711C99.2689 34.1711 97.8689 33.7256 97.0034 32.8346C96.1379 31.9182 95.7051 30.6709 95.7051 29.0927C95.7051 27.4381 96.1506 26.1653 97.0416 25.2744C97.9579 24.3835 99.3453 23.938 101.204 23.938H103.151C105.06 23.938 106.778 23.9889 108.306 24.0907C109.833 24.1925 111.093 24.2944 112.086 24.3962V21.8761C112.086 21.647 112.06 21.4179 112.009 21.1888C111.958 20.9342 111.806 20.7306 111.551 20.5779C111.297 20.4251 110.864 20.3488 110.253 20.3488H108.344C105.569 20.3488 103.253 20.3997 101.394 20.5015C99.5362 20.5779 98.2761 20.6542 97.6143 20.7306L97.1943 17.8287C97.1943 17.4723 98.1616 17.2559 100.096 17.1796C102.031 17.1032 105.264 17.065 109.795 17.065H111.704C112.977 17.065 113.957 17.2432 114.644 17.5996C115.331 17.956 115.815 18.4014 116.095 18.936C116.4 19.4706 116.579 20.0179 116.629 20.5779C116.706 21.1124 116.744 21.5706 116.744 21.9525V34.1711H113.613L112.124 33.4074C111.055 33.5856 109.769 33.7638 108.267 33.942C106.766 34.0947 105.047 34.1711 103.113 34.1711H101.204ZM102.196 30.8873H110.94C111.5 30.8873 111.831 30.8364 111.933 30.7346C112.035 30.6328 112.086 30.3146 112.086 29.78V26.8399H102.196C101.509 26.8399 101.025 27.0054 100.745 27.3363C100.491 27.6672 100.363 28.189 100.363 28.9018C100.363 29.6145 100.516 30.1236 100.822 30.4291C101.127 30.7346 101.585 30.8873 102.196 30.8873ZM121.149 34.1711V17.065H124.28L125.807 17.8287C126.877 17.625 128.162 17.4469 129.664 17.2941C131.166 17.1414 132.884 17.065 134.819 17.065H136.728C138.001 17.065 138.981 17.2432 139.668 17.5996C140.355 17.956 140.839 18.4014 141.119 18.936C141.424 19.4706 141.602 20.0179 141.653 20.5779C141.73 21.1124 141.768 21.5706 141.768 21.9525V34.1711H137.11V21.8761C137.11 20.8579 136.499 20.3488 135.277 20.3488L126.953 20.3488C126.469 20.3488 126.151 20.3997 125.998 20.5015C125.871 20.5779 125.807 20.807 125.807 21.1888V34.1711H121.149ZM152.268 34.1711L163.456 11.7194H170.978L182.127 34.1711H176.247L173.994 29.3218H160.325L157.843 34.1711H152.268ZM161.7 25.5799H172.582L167.351 15.1559H166.969L161.7 25.5799ZM184.427 34.1711V9.96298H189.085V17.5232C190.18 17.396 191.466 17.2941 192.942 17.2178C194.444 17.1159 196.149 17.065 198.058 17.065H200.006C201.279 17.065 202.259 17.2305 202.946 17.5614C203.633 17.8923 204.117 18.3123 204.397 18.8215C204.702 19.3306 204.881 19.8651 204.931 20.4251C205.008 20.9852 205.046 21.4943 205.046 21.9525V29.2836C205.046 29.6654 205.008 30.1364 204.931 30.6964C204.881 31.231 204.702 31.7655 204.397 32.3001C204.117 32.8346 203.633 33.2801 202.946 33.6365C202.259 33.9929 201.279 34.1711 200.006 34.1711H198.058C195.946 34.1711 194.1 34.1201 192.522 34.0183C190.944 33.891 189.633 33.7638 188.589 33.6365L187.558 34.1711H184.427ZM190.269 30.8873H198.555C199.777 30.8873 200.388 30.3782 200.388 29.36V21.8761C200.413 21.3161 200.299 20.9215 200.044 20.6924C199.789 20.4633 199.293 20.3488 198.555 20.3488H196.646C195.017 20.3488 193.566 20.387 192.293 20.4633C191.046 20.5142 189.976 20.5779 189.085 20.6542V29.7036C189.085 30.2382 189.136 30.5691 189.238 30.6964C189.365 30.8237 189.709 30.8873 190.269 30.8873ZM213.576 34.1711C211.87 34.1711 210.661 34.082 209.948 33.9038C209.236 33.7256 208.879 33.5474 208.879 33.3692L210.025 30.5055C210.763 30.5818 212.112 30.6709 214.072 30.7728C216.058 30.8491 218.501 30.8873 221.403 30.8873H223.312C223.949 30.8873 224.343 30.7218 224.496 30.3909C224.674 30.0346 224.763 29.5636 224.763 28.9782C224.763 28.3927 224.662 27.9218 224.458 27.5654C224.28 27.209 223.898 27.0308 223.312 27.0308H213.919C212.137 27.0308 210.852 26.6999 210.063 26.0381C209.274 25.3508 208.879 24.3325 208.879 22.9834V21.4561C208.879 21.0997 208.917 20.6797 208.994 20.196C209.07 19.7124 209.261 19.2287 209.566 18.7451C209.872 18.2614 210.368 17.8669 211.056 17.5614C211.743 17.2305 212.697 17.065 213.919 17.065H224.458C225.985 17.065 227.067 17.1541 227.703 17.3323C228.34 17.5105 228.658 17.6887 228.658 17.8669L228.276 20.7306C227.538 20.6542 226.176 20.5779 224.191 20.5015C222.205 20.3997 219.774 20.3488 216.898 20.3488H214.988C214.352 20.3488 213.945 20.527 213.767 20.8833C213.614 21.2143 213.538 21.6088 213.538 22.067C213.538 22.5507 213.614 22.958 213.767 23.2889C213.945 23.5943 214.352 23.7471 214.988 23.7471H224.382C226.112 23.7471 227.385 24.1034 228.2 24.8162C229.014 25.5289 229.422 26.4326 229.422 27.5272V29.78C229.422 30.2382 229.383 30.7218 229.307 31.231C229.256 31.7401 229.078 32.2237 228.773 32.6819C228.467 33.1147 227.971 33.471 227.283 33.751C226.596 34.031 225.629 34.1711 224.382 34.1711H213.576ZM238.269 34.1711C236.563 34.1711 235.29 33.8274 234.45 33.1401C233.636 32.4528 233.228 31.3328 233.228 29.78V21.9525C233.228 21.5706 233.254 21.1124 233.305 20.5779C233.381 20.0179 233.559 19.4706 233.839 18.936C234.145 18.4014 234.641 17.956 235.328 17.5996C236.041 17.2432 237.021 17.065 238.269 17.065H248.807C250.08 17.065 251.06 17.2432 251.747 17.5996C252.434 17.956 252.918 18.4014 253.198 18.936C253.504 19.4706 253.682 20.0179 253.733 20.5779C253.809 21.1124 253.847 21.5706 253.847 21.9525V29.2836C253.847 29.7418 253.809 30.2509 253.733 30.8109C253.682 31.371 253.504 31.9055 253.198 32.4146C252.893 32.9237 252.396 33.3438 251.709 33.6747C251.022 34.0056 250.054 34.1711 248.807 34.1711H238.269ZM239.719 30.8873H247.356C248.603 30.8873 249.227 30.3782 249.227 29.36V21.8761C249.227 20.8579 248.603 20.3488 247.356 20.3488H239.719C238.498 20.3488 237.887 20.8579 237.887 21.8761V29.36C237.887 30.3782 238.498 30.8873 239.719 30.8873ZM258.416 34.1711V13.0176L258.034 9.96298H263.074V34.1711H258.416ZM272.694 34.1711C271.447 34.1711 270.467 34.0056 269.754 33.6747C269.067 33.3438 268.571 32.9237 268.265 32.4146C267.985 31.9055 267.807 31.371 267.731 30.8109C267.68 30.2509 267.654 29.7418 267.654 29.2836V17.065H272.313V29.36C272.287 29.92 272.465 30.3146 272.847 30.5437C273.254 30.7728 273.687 30.8873 274.145 30.8873H281.706C282.266 30.8873 282.597 30.8364 282.698 30.7346C282.8 30.6328 282.851 30.3018 282.851 29.7418V17.065H287.509V34.1711H284.378L282.928 33.4074C281.909 33.611 280.7 33.7892 279.3 33.942C277.926 34.0947 276.373 34.1711 274.642 34.1711H272.694ZM298.722 34.1711C296.787 34.1711 295.464 33.7638 294.751 32.9492C294.038 32.1346 293.682 30.9128 293.682 29.2836V20.3488H290.551V17.065H292.154C292.638 17.065 292.982 16.9887 293.185 16.8359C293.414 16.6832 293.58 16.3777 293.682 15.9195L294.445 11.8339H298.34V17.065H306.282V20.3488H298.34V29.3218C298.34 29.9582 298.493 30.3782 298.798 30.5818C299.104 30.7855 299.562 30.8873 300.173 30.8873H305.557L305.938 33.7892C305.404 33.8656 304.589 33.9547 303.495 34.0565C302.4 34.1329 301.204 34.1711 299.906 34.1711H298.722ZM312.053 14.6595C311.112 14.6595 310.424 14.4686 309.992 14.0868C309.559 13.7049 309.342 13.0685 309.342 12.1776C309.342 11.2612 309.546 10.6248 309.953 10.2684C310.386 9.88661 311.086 9.6957 312.053 9.6957C313.021 9.6957 313.721 9.88661 314.154 10.2684C314.586 10.6248 314.803 11.2612 314.803 12.1776C314.803 13.0431 314.586 13.6795 314.154 14.0868C313.721 14.4686 313.021 14.6595 312.053 14.6595ZM309.724 34.1711V17.065H314.383V34.1711H309.724ZM324.031 34.1711C322.326 34.1711 321.053 33.8274 320.213 33.1401C319.398 32.4528 318.991 31.3328 318.991 29.78V21.9525C318.991 21.5706 319.017 21.1124 319.067 20.5779C319.144 20.0179 319.322 19.4706 319.602 18.936C319.908 18.4014 320.404 17.956 321.091 17.5996C321.804 17.2432 322.784 17.065 324.031 17.065H334.57C335.843 17.065 336.823 17.2432 337.51 17.5996C338.197 17.956 338.681 18.4014 338.961 18.936C339.266 19.4706 339.445 20.0179 339.495 20.5779C339.572 21.1124 339.61 21.5706 339.61 21.9525V29.2836C339.61 29.7418 339.572 30.2509 339.495 30.8109C339.445 31.371 339.266 31.9055 338.961 32.4146C338.655 32.9237 338.159 33.3438 337.472 33.6747C336.784 34.0056 335.817 34.1711 334.57 34.1711H324.031ZM325.482 30.8873H333.119C334.366 30.8873 334.99 30.3782 334.99 29.36V21.8761C334.99 20.8579 334.366 20.3488 333.119 20.3488H325.482C324.26 20.3488 323.649 20.8579 323.649 21.8761V29.36C323.649 30.3782 324.26 30.8873 325.482 30.8873ZM343.797 34.1711V17.065H346.928L348.455 17.8287C349.524 17.625 350.81 17.4469 352.312 17.2941C353.813 17.1414 355.532 17.065 357.466 17.065H359.375C360.648 17.065 361.628 17.2432 362.316 17.5996C363.003 17.956 363.486 18.4014 363.766 18.936C364.072 19.4706 364.25 20.0179 364.301 20.5779C364.377 21.1124 364.416 21.5706 364.416 21.9525V34.1711H359.757V21.8761C359.757 20.8579 359.146 20.3488 357.924 20.3488H349.601C349.117 20.3488 348.799 20.3997 348.646 20.5015C348.519 20.5779 348.455 20.807 348.455 21.1888V34.1711H343.797Z" fill="white"/>
<path d="M9.02251 84.9982H1.39515V83.2394C1.39515 82.3508 1.5124 81.6103 1.7469 81.0179C1.9814 80.4131 2.29612 79.9194 2.69106 79.5368C3.08601 79.1419 3.51798 78.8272 3.98697 78.5927L5.24586 77.9632C5.7272 77.7164 6.11597 77.4572 6.41218 77.1857C6.72073 76.9018 6.875 76.5377 6.875 76.0934V75.7602C6.875 75.3035 6.71456 74.9456 6.39367 74.6864C6.08512 74.4149 5.58526 74.2792 4.89411 74.2792C4.47448 74.2792 4.04868 74.3409 3.61671 74.4643C3.19709 74.5877 2.68489 74.7605 2.08013 74.9826L1.39515 73.0758C2.08631 72.7673 2.71575 72.5513 3.28348 72.4279C3.86355 72.2921 4.42512 72.2242 4.96816 72.2242C5.96787 72.2242 6.76393 72.3847 7.35634 72.7055C7.9611 73.0264 8.39307 73.4584 8.65225 74.0015C8.92378 74.5322 9.05954 75.1184 9.05954 75.7602V76.0934C9.05954 76.7599 8.92378 77.3276 8.65225 77.7966C8.39307 78.2656 8.04749 78.6606 7.61552 78.9815C7.18355 79.3023 6.71456 79.5862 6.20854 79.8331L4.94965 80.4625C4.493 80.6847 4.15359 80.9932 3.93144 81.3881C3.72162 81.7831 3.60437 82.2891 3.57969 82.9062H9.02251V84.9982ZM20.0911 77.3708V80.0182C20.0911 81.6226 19.7147 82.8877 18.9618 83.8134C18.209 84.7267 17.1044 85.1833 15.648 85.1833C14.1916 85.1833 13.087 84.7267 12.3342 83.8134C11.5813 82.8877 11.2049 81.6226 11.2049 80.0182V77.3708C11.2049 75.7664 11.5813 74.5075 12.3342 73.5942C13.087 72.6809 14.1916 72.2242 15.648 72.2242C17.1044 72.2242 18.209 72.6809 18.9618 73.5942C19.7147 74.5075 20.0911 75.7664 20.0911 77.3708ZM17.851 77.3708C17.851 75.3097 17.1167 74.2792 15.648 74.2792C14.8951 74.2792 14.3397 74.5383 13.9818 75.0567C13.6239 75.5751 13.445 76.3464 13.445 77.3708V80.0182C13.445 81.0426 13.6239 81.8201 13.9818 82.3508C14.3397 82.8692 14.8951 83.1284 15.648 83.1284C17.1167 83.1284 17.851 82.0916 17.851 80.0182V77.3708ZM29.6689 84.9982H22.0415V83.2394C22.0415 82.3508 22.1587 81.6103 22.3932 81.0179C22.6277 80.4131 22.9425 79.9194 23.3374 79.5368C23.7324 79.1419 24.1643 78.8272 24.6333 78.5927L25.8922 77.9632C26.3735 77.7164 26.7623 77.4572 27.0585 77.1857C27.3671 76.9018 27.5213 76.5377 27.5213 76.0934V75.7602C27.5213 75.3035 27.3609 74.9456 27.04 74.6864C26.7315 74.4149 26.2316 74.2792 25.5405 74.2792C25.1208 74.2792 24.695 74.3409 24.2631 74.4643C23.8434 74.5877 23.3312 74.7605 22.7265 74.9826L22.0415 73.0758C22.7326 72.7673 23.3621 72.5513 23.9298 72.4279C24.5099 72.2921 25.0715 72.2242 25.6145 72.2242C26.6142 72.2242 27.4103 72.3847 28.0027 72.7055C28.6074 73.0264 29.0394 73.4584 29.2986 74.0015C29.5701 74.5322 29.7059 75.1184 29.7059 75.7602V76.0934C29.7059 76.7599 29.5701 77.3276 29.2986 77.7966C29.0394 78.2656 28.6938 78.6606 28.2619 78.9815C27.8299 79.3023 27.3609 79.5862 26.8549 79.8331L25.596 80.4625C25.1393 80.6847 24.7999 80.9932 24.5778 81.3881C24.368 81.7831 24.2507 82.2891 24.226 82.9062H29.6689V84.9982ZM39.0158 84.9982H31.3884V83.2394C31.3884 82.3508 31.5056 81.6103 31.7401 81.0179C31.9746 80.4131 32.2894 79.9194 32.6843 79.5368C33.0793 79.1419 33.5112 78.8272 33.9802 78.5927L35.2391 77.9632C35.7204 77.7164 36.1092 77.4572 36.4054 77.1857C36.714 76.9018 36.8682 76.5377 36.8682 76.0934V75.7602C36.8682 75.3035 36.7078 74.9456 36.3869 74.6864C36.0784 74.4149 35.5785 74.2792 34.8874 74.2792C34.4677 74.2792 34.0419 74.3409 33.61 74.4643C33.1903 74.5877 32.6781 74.7605 32.0734 74.9826L31.3884 73.0758C32.0795 72.7673 32.709 72.5513 33.2767 72.4279C33.8568 72.2921 34.4184 72.2242 34.9614 72.2242C35.9611 72.2242 36.7572 72.3847 37.3496 72.7055C37.9543 73.0264 38.3863 73.4584 38.6455 74.0015C38.917 74.5322 39.0528 75.1184 39.0528 75.7602V76.0934C39.0528 76.7599 38.917 77.3276 38.6455 77.7966C38.3863 78.2656 38.0407 78.6606 37.6088 78.9815C37.1768 79.3023 36.7078 79.5862 36.2018 79.8331L34.9429 80.4625C34.4862 80.6847 34.1468 80.9932 33.9247 81.3881C33.7149 81.7831 33.5976 82.2891 33.5729 82.9062H39.0158V84.9982Z" fill="white"/>
<path d="M63.7959 66.9982V84.9327" stroke="#565656" stroke-width="1.15706"/>
<g clip-path="url(#clip0_1_68)">
<path d="M96.3114 87.7819C94.6614 87.6118 93.0761 87.0494 91.6878 86.1417C90.5189 85.3802 90.2546 85.0665 90.2546 84.4417C90.2546 83.1856 91.637 80.9844 94.0022 78.476C95.3443 77.0507 97.2161 75.3806 97.4179 75.4262C97.811 75.5147 100.956 78.5802 102.133 80.0225C103.994 82.3043 104.851 84.1736 104.416 85.0067C104.085 85.6393 102.034 86.8772 100.528 87.3523C99.2858 87.7441 97.6548 87.9107 96.3114 87.7819ZM88.6757 83.1348C87.7033 81.6457 87.2126 80.18 86.9757 78.0582C86.8976 77.3566 86.9262 76.957 87.154 75.5199C87.4378 73.7275 88.4583 71.6539 89.6858 70.3782C90.2078 69.8354 90.2546 69.8224 90.8912 70.0358C91.6657 70.2962 92.4922 70.8663 93.7718 72.0248L94.519 72.7004L94.1115 73.2016C92.2163 75.5277 90.2169 78.8249 89.4619 80.8647C89.0519 81.9737 88.8865 83.0866 89.0636 83.5501C89.182 83.8625 89.0727 83.7453 88.6731 83.1348H88.6757ZM105.729 83.3886C105.826 82.92 105.704 82.0609 105.419 81.1927C104.804 79.3143 102.744 75.8193 100.853 73.4437L100.258 72.6952L100.901 72.1042C101.742 71.3323 102.327 70.8702 102.958 70.4771C103.454 70.1686 104.165 69.894 104.469 69.894C104.658 69.894 105.32 70.5813 105.855 71.331C106.707 72.5441 107.302 73.9181 107.604 75.3689C107.803 76.3165 107.82 78.3446 107.635 79.2896C107.461 80.136 107.2 80.9619 106.854 81.7537C106.621 82.2653 106.042 83.2585 105.786 83.5813C105.656 83.7479 105.656 83.7466 105.73 83.3886H105.729ZM96.4845 69.5386C95.6124 69.096 94.2665 68.6209 93.5219 68.4933C93.1949 68.4446 92.8642 68.4259 92.5339 68.4374C91.9208 68.4686 91.9481 68.4374 92.9322 67.9714C93.7036 67.6009 94.5189 67.3297 95.3586 67.1643C96.3999 66.9443 98.3603 66.943 99.386 67.1578C100.492 67.3921 101.798 67.8763 102.534 68.3293L102.752 68.4634L102.251 68.4374C101.254 68.3879 99.8039 68.7888 98.2444 69.5477C97.7745 69.7768 97.3645 69.959 97.3345 69.9538C97.0467 69.8239 96.7628 69.6854 96.4832 69.5386H96.4845Z" fill="white"/>
</g>
<g clip-path="url(#clip1_1_68)">
<path d="M146.92 81.904C146.512 82.4182 145.515 82.7839 145.515 82.7839L138.101 85.4472V83.4829L143.557 81.5395C144.177 81.3182 144.272 81.0032 143.768 80.8392C143.266 80.6739 142.356 80.722 141.738 80.9433L138.101 82.2242V80.1857L138.31 80.1155C138.31 80.1155 139.361 79.7432 140.838 79.5792C142.316 79.4164 144.125 79.6013 145.545 80.1389C147.146 80.6465 147.326 81.3911 146.92 81.904ZM138.806 78.5612V73.5367C138.806 72.947 138.698 72.4042 138.145 72.2506C137.721 72.1139 137.458 72.5083 137.458 73.0967V85.6763L134.065 84.5998V69.6017C135.508 69.8698 137.609 70.5024 138.738 70.8838C141.611 71.8692 142.585 73.0967 142.585 75.8628C142.585 78.5586 140.921 79.5805 138.806 78.5599V78.5612ZM127.841 83.2799C126.198 82.8139 125.925 81.8506 126.673 81.2961C127.366 80.7832 128.542 80.3979 128.542 80.3979L133.407 78.6667V80.6387L129.905 81.8923C129.288 82.1136 129.193 82.4273 129.696 82.5926C130.198 82.7566 131.108 82.7097 131.726 82.4884L133.405 81.8779V83.643L133.071 83.699C131.319 83.9826 129.525 83.8384 127.841 83.2786V83.2799Z" fill="white"/>
</g>
<path d="M176.269 70.8916V76.7675H184.039V69.6041L176.269 70.8916ZM176.269 83.9533L184.039 85.2184V78.059H176.269V83.9533ZM168.058 76.7655H174.626V71.1051L168.058 72.1933V76.7655ZM168.058 82.6719L174.626 83.7417V78.059H168.058V82.6719Z" fill="white"/>
<path d="M209.586 66.9982V84.9327" stroke="#565656" stroke-width="1.15706"/>
<path d="M241.984 70.4852L244.062 76.8813H250.787L245.346 80.8343L247.424 87.2303L241.984 83.2774L236.543 87.2303L238.621 80.8343L233.18 76.8813H239.905L241.984 70.4852Z" fill="#FFC83A"/>
<path d="M266.374 82.1472H265.06V84.9982H262.913V82.1472H257.507V80.3514C258.062 79.4875 258.611 78.6112 259.154 77.7226C259.71 76.8216 260.228 75.9268 260.71 75.0382C261.191 74.1372 261.586 73.2609 261.894 72.4093H264.32C263.863 73.6682 263.246 74.9641 262.468 76.2971C261.691 77.6177 260.888 78.9074 260.062 80.1663H262.913V78.2594H265.06V80.1663H266.374V82.1472ZM269.861 84.9982H267.621V82.7951H269.861V84.9982ZM280.116 81.5733C280.116 82.2521 279.956 82.863 279.635 83.4061C279.326 83.9491 278.851 84.3811 278.21 84.702C277.568 85.0229 276.753 85.1833 275.766 85.1833C274.791 85.1833 274.001 85.0352 273.396 84.739C272.791 84.4305 272.347 84.0293 272.063 83.5357C271.779 83.042 271.637 82.4928 271.637 81.888C271.637 81.2832 271.779 80.7279 272.063 80.2218C272.347 79.7035 272.816 79.2283 273.47 78.7963C272.952 78.4508 272.551 78.025 272.267 77.5189C271.995 77.0129 271.86 76.4205 271.86 75.7417C271.86 75.0876 272.014 74.4951 272.322 73.9644C272.631 73.4337 273.081 73.0141 273.674 72.7055C274.266 72.3847 274.976 72.2242 275.803 72.2242C276.691 72.2242 277.438 72.3723 278.043 72.6685C278.648 72.9647 279.098 73.3658 279.394 73.8719C279.703 74.3655 279.857 74.9209 279.857 75.538C279.857 76.0811 279.728 76.5933 279.468 77.0746C279.222 77.5436 278.802 77.9818 278.21 78.389C279.481 79.1049 280.116 80.1663 280.116 81.5733ZM275.636 77.4449L276.543 77.7226C276.963 77.3647 277.253 77.0376 277.413 76.7414C277.586 76.4328 277.673 76.1181 277.673 75.7972C277.673 75.3035 277.512 74.9148 277.191 74.6309C276.883 74.3347 276.438 74.1866 275.858 74.1866C275.278 74.1866 274.828 74.3285 274.507 74.6124C274.198 74.8963 274.044 75.285 274.044 75.7787C274.044 76.5563 274.575 77.1116 275.636 77.4449ZM273.822 81.5733C273.822 82.067 274.001 82.4681 274.359 82.7766C274.717 83.0728 275.223 83.2209 275.877 83.2209C276.519 83.2209 277.019 83.0728 277.376 82.7766C277.747 82.4804 277.932 82.0855 277.932 81.5918C277.932 81.2215 277.796 80.8883 277.525 80.5921C277.265 80.2835 276.815 80.0305 276.173 79.8331L275.173 79.5183C274.717 79.8886 274.377 80.2342 274.155 80.5551C273.933 80.876 273.822 81.2154 273.822 81.5733Z" fill="white"/>
<defs>
<clipPath id="clip0_1_68">
<rect width="20.8271" height="20.8271" fill="white" transform="translate(86.9372 66.9982)"/>
</clipPath>
<clipPath id="clip1_1_68">
<rect width="20.8271" height="20.8271" fill="white" transform="translate(126.277 66.9982)"/>
</clipPath>
</defs>
</svg>
