<svg width="72" height="398" viewBox="0 0 72 398" fill="none" xmlns="http://www.w3.org/2000/svg">
<path d="M0.521271 335.78H72V353.191H42.5736V380.276H72V397.687H0.521271V380.276H28.5222V353.191H0.521271V335.78ZM0.521271 305.799H72V323.21H0.521271V305.799ZM0.521271 241.761H14.4708V260.7H72V278.111H14.4708V297.05H0.521271V241.761ZM0.521271 152.074H72V169.486H29.1331L72 185.472V199.523L29.0313 215.611H72V233.023H0.521271V212.455L50.0065 192.396L0.521271 172.541V152.074ZM59.3741 95.0575V121.735L72 126.011V144.237L0.521271 118.375V98.214L72 72.3513V90.781L59.3741 95.0575ZM45.9337 99.5376L19.7655 108.396L45.9337 117.153V99.5376ZM72 0.536094V17.9476L27.9113 47.0685H72V64.48H0.521271V47.0685L44.8136 17.9476H0.521271V0.536094H72Z" fill="black" fill-opacity="0.07"/>
</svg>
